<?xml version="1.0" encoding="UTF-8" standalone="no"?>
<!DOCTYPE svg PUBLIC "-//W3C//DTD SVG 1.1//EN"
 "http://www.w3.org/Graphics/SVG/1.1/DTD/svg11.dtd">
<!-- Generated by graphviz version 2.40.1 (20161225.0304)
 -->
<!-- Title: GFA Pages: 1 -->
<svg width="3455pt" height="332pt"
 viewBox="0.00 0.00 3454.64 332.00" xmlns="http://www.w3.org/2000/svg" xmlns:xlink="http://www.w3.org/1999/xlink">
<g id="graph0" class="graph" transform="scale(1 1) rotate(0) translate(4 328)">
<title>GFA</title>
<polygon fill="#ffffff" stroke="transparent" points="-4,4 -4,-328 3450.6361,-328 3450.6361,4 -4,4"/>
<!-- Gorgeous Food Application -->
<g id="node1" class="node">
<title>Gorgeous Food Application</title>
<ellipse fill="none" stroke="#000000" cx="1819.7457" cy="-306" rx="109.381" ry="18"/>
<text text-anchor="middle" x="1819.7457" y="-302.3" font-family="Times,serif" font-size="14.00" fill="#000000">Gorgeous Food Application</text>
</g>
<!-- Functional Requirements -->
<g id="node2" class="node">
<title>Functional Requirements</title>
<ellipse fill="none" stroke="#000000" cx="1723.7457" cy="-234" rx="100.1823" ry="18"/>
<text text-anchor="middle" x="1723.7457" y="-230.3" font-family="Times,serif" font-size="14.00" fill="#000000">Functional Requirements</text>
</g>
<!-- Gorgeous Food Application&#45;&gt;Functional Requirements -->
<g id="edge35" class="edge">
<title>Gorgeous Food Application&#45;&gt;Functional Requirements</title>
<path fill="none" stroke="#000000" d="M1796.0153,-288.2022C1783.8087,-279.0473 1768.7604,-267.761 1755.5613,-257.8617"/>
<polygon fill="#000000" stroke="#000000" points="1757.3031,-254.7931 1747.203,-251.593 1753.1031,-260.3931 1757.3031,-254.7931"/>
</g>
<!-- Quality Attributes -->
<g id="node22" class="node">
<title>Quality Attributes</title>
<ellipse fill="none" stroke="#000000" cx="1916.7457" cy="-234" rx="74.9875" ry="18"/>
<text text-anchor="middle" x="1916.7457" y="-230.3" font-family="Times,serif" font-size="14.00" fill="#000000">Quality Attributes</text>
</g>
<!-- Gorgeous Food Application&#45;&gt;Quality Attributes -->
<g id="edge36" class="edge">
<title>Gorgeous Food Application&#45;&gt;Quality Attributes</title>
<path fill="none" stroke="#000000" d="M1843.7232,-288.2022C1856.2674,-278.8911 1871.7816,-267.3754 1885.2795,-257.3564"/>
<polygon fill="#000000" stroke="#000000" points="1887.435,-260.1152 1893.3787,-251.3446 1883.2629,-254.4944 1887.435,-260.1152"/>
</g>
<!-- Manage Meals -->
<g id="node3" class="node">
<title>Manage Meals</title>
<ellipse fill="none" stroke="#000000" cx="991.7457" cy="-162" rx="63.8893" ry="18"/>
<text text-anchor="middle" x="991.7457" y="-158.3" font-family="Times,serif" font-size="14.00" fill="#000000">Manage Meals</text>
</g>
<!-- Functional Requirements&#45;&gt;Manage Meals -->
<g id="edge33" class="edge">
<title>Functional Requirements&#45;&gt;Manage Meals</title>
<path fill="none" stroke="#000000" d="M1635.8132,-225.3509C1489.019,-210.9121 1196.9183,-182.1809 1062.4729,-168.9568"/>
<polygon fill="#000000" stroke="#000000" points="1062.5861,-165.4511 1052.2915,-167.9553 1061.9008,-172.4175 1062.5861,-165.4511"/>
</g>
<!-- Manage Unserved Meals -->
<g id="node15" class="node">
<title>Manage Unserved Meals</title>
<ellipse fill="none" stroke="#000000" cx="2456.7457" cy="-162" rx="100.1823" ry="18"/>
<text text-anchor="middle" x="2456.7457" y="-158.3" font-family="Times,serif" font-size="14.00" fill="#000000">Manage Unserved Meals</text>
</g>
<!-- Functional Requirements&#45;&gt;Manage Unserved Meals -->
<g id="edge34" class="edge">
<title>Functional Requirements&#45;&gt;Manage Unserved Meals</title>
<path fill="none" stroke="#000000" d="M1795.4548,-221.3486C1807.8657,-219.3909 1820.6615,-217.5183 1832.7457,-216 2014.6851,-193.1399 2227.6948,-176.9651 2351.8936,-168.5876"/>
<polygon fill="#000000" stroke="#000000" points="2352.4116,-172.0608 2362.155,-167.8996 2351.9432,-165.0765 2352.4116,-172.0608"/>
</g>
<!-- Save Meal -->
<g id="node4" class="node">
<title>Save Meal</title>
<ellipse fill="none" stroke="#000000" cx="48.7457" cy="-90" rx="48.9926" ry="18"/>
<text text-anchor="middle" x="48.7457" y="-86.3" font-family="Times,serif" font-size="14.00" fill="#000000">Save Meal</text>
</g>
<!-- Manage Meals&#45;&gt;Save Meal -->
<g id="edge11" class="edge">
<title>Manage Meals&#45;&gt;Save Meal</title>
<path fill="none" stroke="#000000" d="M928.266,-160.1051C752.9599,-154.5571 264.6945,-136.8938 106.7457,-108 102.6037,-107.2423 98.3425,-106.2829 94.1,-105.2033"/>
<polygon fill="#000000" stroke="#000000" points="94.8704,-101.7852 84.3,-102.504 93.0115,-108.5339 94.8704,-101.7852"/>
</g>
<!-- Show Meal Designation -->
<g id="node6" class="node">
<title>Show Meal Designation</title>
<ellipse fill="none" stroke="#000000" cx="212.7457" cy="-90" rx="96.6831" ry="18"/>
<text text-anchor="middle" x="212.7457" y="-86.3" font-family="Times,serif" font-size="14.00" fill="#000000">Show Meal Designation</text>
</g>
<!-- Manage Meals&#45;&gt;Show Meal Designation -->
<g id="edge12" class="edge">
<title>Manage Meals&#45;&gt;Show Meal Designation</title>
<path fill="none" stroke="#000000" d="M928.9284,-158.8126C809.6646,-152.3507 542.359,-135.902 318.7457,-108 310.0654,-106.9169 301.011,-105.6271 292.0103,-104.2427"/>
<polygon fill="#000000" stroke="#000000" points="292.3174,-100.7479 281.8939,-102.6453 291.2256,-107.6622 292.3174,-100.7479"/>
</g>
<!-- Show Meal Nutritional Data -->
<g id="node7" class="node">
<title>Show Meal Nutritional Data</title>
<ellipse fill="none" stroke="#000000" cx="439.7457" cy="-90" rx="111.5806" ry="18"/>
<text text-anchor="middle" x="439.7457" y="-86.3" font-family="Times,serif" font-size="14.00" fill="#000000">Show Meal Nutritional Data</text>
</g>
<!-- Manage Meals&#45;&gt;Show Meal Nutritional Data -->
<g id="edge13" class="edge">
<title>Manage Meals&#45;&gt;Show Meal Nutritional Data</title>
<path fill="none" stroke="#000000" d="M932.7809,-155.0484C849.7181,-145.1566 693.5488,-126.1949 560.7457,-108 551.1192,-106.6811 541.0689,-105.2587 531.0539,-103.812"/>
<polygon fill="#000000" stroke="#000000" points="531.4671,-100.3354 521.0675,-102.3601 530.4599,-107.2625 531.4671,-100.3354"/>
</g>
<!-- Show Meal Type -->
<g id="node8" class="node">
<title>Show Meal Type</title>
<ellipse fill="none" stroke="#000000" cx="641.7457" cy="-90" rx="72.2875" ry="18"/>
<text text-anchor="middle" x="641.7457" y="-86.3" font-family="Times,serif" font-size="14.00" fill="#000000">Show Meal Type</text>
</g>
<!-- Manage Meals&#45;&gt;Show Meal Type -->
<g id="edge14" class="edge">
<title>Manage Meals&#45;&gt;Show Meal Type</title>
<path fill="none" stroke="#000000" d="M939.1043,-151.7647C884.8278,-141.1337 797.7758,-123.8658 722.7457,-108 717.0575,-106.7972 711.1496,-105.5262 705.2326,-104.2385"/>
<polygon fill="#000000" stroke="#000000" points="705.8207,-100.7844 695.3035,-102.0647 704.3235,-107.6225 705.8207,-100.7844"/>
</g>
<!-- Show Meal Location -->
<g id="node9" class="node">
<title>Show Meal Location</title>
<ellipse fill="none" stroke="#000000" cx="816.7457" cy="-90" rx="85.2851" ry="18"/>
<text text-anchor="middle" x="816.7457" y="-86.3" font-family="Times,serif" font-size="14.00" fill="#000000">Show Meal Location</text>
</g>
<!-- Manage Meals&#45;&gt;Show Meal Location -->
<g id="edge15" class="edge">
<title>Manage Meals&#45;&gt;Show Meal Location</title>
<path fill="none" stroke="#000000" d="M955.4856,-147.0816C929.3111,-136.3126 893.6917,-121.6578 865.098,-109.8935"/>
<polygon fill="#000000" stroke="#000000" points="866.2738,-106.5927 855.6942,-106.0245 863.6104,-113.0662 866.2738,-106.5927"/>
</g>
<!-- Show Meal Price -->
<g id="node10" class="node">
<title>Show Meal Price</title>
<ellipse fill="none" stroke="#000000" cx="991.7457" cy="-90" rx="72.2875" ry="18"/>
<text text-anchor="middle" x="991.7457" y="-86.3" font-family="Times,serif" font-size="14.00" fill="#000000">Show Meal Price</text>
</g>
<!-- Manage Meals&#45;&gt;Show Meal Price -->
<g id="edge16" class="edge">
<title>Manage Meals&#45;&gt;Show Meal Price</title>
<path fill="none" stroke="#000000" d="M991.7457,-143.8314C991.7457,-136.131 991.7457,-126.9743 991.7457,-118.4166"/>
<polygon fill="#000000" stroke="#000000" points="995.2458,-118.4132 991.7457,-108.4133 988.2458,-118.4133 995.2458,-118.4132"/>
</g>
<!-- List Meal Ingreditens -->
<g id="node11" class="node">
<title>List Meal Ingreditens</title>
<ellipse fill="none" stroke="#000000" cx="1168.7457" cy="-90" rx="87.1846" ry="18"/>
<text text-anchor="middle" x="1168.7457" y="-86.3" font-family="Times,serif" font-size="14.00" fill="#000000">List Meal Ingreditens</text>
</g>
<!-- Manage Meals&#45;&gt;List Meal Ingreditens -->
<g id="edge17" class="edge">
<title>Manage Meals&#45;&gt;List Meal Ingreditens</title>
<path fill="none" stroke="#000000" d="M1028.4202,-147.0816C1054.8028,-136.3496 1090.6728,-121.7584 1119.5423,-110.0149"/>
<polygon fill="#000000" stroke="#000000" points="1121.0965,-113.1613 1129.0406,-106.1512 1118.4589,-106.6772 1121.0965,-113.1613"/>
</g>
<!-- List Meal Allergens -->
<g id="node12" class="node">
<title>List Meal Allergens</title>
<ellipse fill="none" stroke="#000000" cx="1355.7457" cy="-90" rx="81.7856" ry="18"/>
<text text-anchor="middle" x="1355.7457" y="-86.3" font-family="Times,serif" font-size="14.00" fill="#000000">List Meal Allergens</text>
</g>
<!-- Manage Meals&#45;&gt;List Meal Allergens -->
<g id="edge18" class="edge">
<title>Manage Meals&#45;&gt;List Meal Allergens</title>
<path fill="none" stroke="#000000" d="M1044.2857,-151.6075C1107.5243,-139.0987 1213.9981,-118.038 1284.5712,-104.0785"/>
<polygon fill="#000000" stroke="#000000" points="1285.5829,-107.4462 1294.7137,-102.0723 1284.2246,-100.5793 1285.5829,-107.4462"/>
</g>
<!-- Check Meal Availability -->
<g id="node13" class="node">
<title>Check Meal Availability</title>
<ellipse fill="none" stroke="#000000" cx="1554.7457" cy="-90" rx="98.5829" ry="18"/>
<text text-anchor="middle" x="1554.7457" y="-86.3" font-family="Times,serif" font-size="14.00" fill="#000000">Check Meal Availability</text>
</g>
<!-- Manage Meals&#45;&gt;Check Meal Availability -->
<g id="edge19" class="edge">
<title>Manage Meals&#45;&gt;Check Meal Availability</title>
<path fill="none" stroke="#000000" d="M1051.8499,-155.7769C1139.0299,-146.5441 1305.5848,-128.1286 1446.7457,-108 1455.2911,-106.7815 1464.2031,-105.4289 1473.0827,-104.0281"/>
<polygon fill="#000000" stroke="#000000" points="1473.7512,-107.4658 1483.0731,-102.4307 1472.6459,-100.5536 1473.7512,-107.4658"/>
</g>
<!-- Pay Meal -->
<g id="node14" class="node">
<title>Pay Meal</title>
<ellipse fill="none" stroke="#000000" cx="1716.7457" cy="-90" rx="44.6926" ry="18"/>
<text text-anchor="middle" x="1716.7457" y="-86.3" font-family="Times,serif" font-size="14.00" fill="#000000">Pay Meal</text>
</g>
<!-- Manage Meals&#45;&gt;Pay Meal -->
<g id="edge20" class="edge">
<title>Manage Meals&#45;&gt;Pay Meal</title>
<path fill="none" stroke="#000000" d="M1054.6113,-158.8827C1198.3425,-151.441 1547.4422,-131.4965 1662.7457,-108 1666.5584,-107.223 1670.4757,-106.2593 1674.3753,-105.1845"/>
<polygon fill="#000000" stroke="#000000" points="1675.3785,-108.5378 1683.9624,-102.3276 1673.3793,-101.8293 1675.3785,-108.5378"/>
</g>
<!-- Version 0.0.1 -->
<g id="node5" class="node">
<title>Version 0.0.1</title>
<ellipse fill="none" stroke="#000000" cx="1454.7457" cy="-18" rx="59.2899" ry="18"/>
<text text-anchor="middle" x="1454.7457" y="-14.3" font-family="Times,serif" font-size="14.00" fill="#000000">Version 0.0.1</text>
</g>
<!-- Save Meal&#45;&gt;Version 0.0.1 -->
<g id="edge1" class="edge">
<title>Save Meal&#45;&gt;Version 0.0.1</title>
<path fill="none" stroke="#000000" d="M83.9685,-77.4665C91.4037,-75.2751 99.2646,-73.2879 106.7457,-72 356.2179,-29.0533 1145.4867,-20.1325 1385.0958,-18.396"/>
<polygon fill="#000000" stroke="#000000" points="1385.439,-21.8938 1395.4141,-18.3233 1385.3896,-14.894 1385.439,-21.8938"/>
</g>
<!-- Show Meal Designation&#45;&gt;Version 0.0.1 -->
<g id="edge2" class="edge">
<title>Show Meal Designation&#45;&gt;Version 0.0.1</title>
<path fill="none" stroke="#000000" d="M281.0016,-77.1638C293.5193,-75.1649 306.4976,-73.3261 318.7457,-72 527.3311,-49.4158 1172.4819,-27.1139 1385.6168,-20.1896"/>
<polygon fill="#000000" stroke="#000000" points="1385.8556,-23.6838 1395.737,-19.8619 1385.6289,-16.6875 1385.8556,-23.6838"/>
</g>
<!-- Show Meal Nutritional Data&#45;&gt;Version 0.0.1 -->
<g id="edge3" class="edge">
<title>Show Meal Nutritional Data&#45;&gt;Version 0.0.1</title>
<path fill="none" stroke="#000000" d="M518.701,-77.2395C532.6809,-75.2703 547.1211,-73.4221 560.7457,-72 867.4469,-39.9865 1235.4734,-25.1665 1385.7496,-20.1133"/>
<polygon fill="#000000" stroke="#000000" points="1385.8819,-23.6109 1395.76,-19.7803 1385.6491,-16.6148 1385.8819,-23.6109"/>
</g>
<!-- Show Meal Type&#45;&gt;Version 0.0.1 -->
<g id="edge4" class="edge">
<title>Show Meal Type&#45;&gt;Version 0.0.1</title>
<path fill="none" stroke="#000000" d="M693.3911,-77.3519C703.098,-75.3084 713.1969,-73.4056 722.7457,-72 964.5553,-36.405 1254.9345,-23.8349 1385.36,-19.769"/>
<polygon fill="#000000" stroke="#000000" points="1385.7114,-23.26 1395.6001,-19.4571 1385.4982,-16.2633 1385.7114,-23.26"/>
</g>
<!-- Show Meal Location&#45;&gt;Version 0.0.1 -->
<g id="edge5" class="edge">
<title>Show Meal Location&#45;&gt;Version 0.0.1</title>
<path fill="none" stroke="#000000" d="M878.0461,-77.4352C888.9106,-75.4447 900.1394,-73.5387 910.7457,-72 1081.2353,-47.2662 1283.4495,-30.4589 1386.6864,-22.7724"/>
<polygon fill="#000000" stroke="#000000" points="1387.2526,-26.2402 1396.9675,-22.0128 1386.7367,-19.2592 1387.2526,-26.2402"/>
</g>
<!-- Show Meal Price&#45;&gt;Version 0.0.1 -->
<g id="edge6" class="edge">
<title>Show Meal Price&#45;&gt;Version 0.0.1</title>
<path fill="none" stroke="#000000" d="M1044.7816,-77.5909C1054.0762,-75.5947 1063.6743,-73.6465 1072.7457,-72 1183.4341,-51.9095 1313.3128,-34.9369 1389.5544,-25.6389"/>
<polygon fill="#000000" stroke="#000000" points="1389.987,-29.1122 1399.4927,-24.4333 1389.144,-22.1631 1389.987,-29.1122"/>
</g>
<!-- List Meal Ingreditens&#45;&gt;Version 0.0.1 -->
<g id="edge7" class="edge">
<title>List Meal Ingreditens&#45;&gt;Version 0.0.1</title>
<path fill="none" stroke="#000000" d="M1224.2285,-76.0323C1274.6363,-63.3422 1348.6182,-44.7174 1399.0822,-32.0132"/>
<polygon fill="#000000" stroke="#000000" points="1400.0046,-35.3903 1408.8475,-29.5548 1398.2956,-28.6021 1400.0046,-35.3903"/>
</g>
<!-- List Meal Allergens&#45;&gt;Version 0.0.1 -->
<g id="edge8" class="edge">
<title>List Meal Allergens&#45;&gt;Version 0.0.1</title>
<path fill="none" stroke="#000000" d="M1379.4586,-72.7542C1392.7522,-63.0861 1409.4884,-50.9144 1423.8034,-40.5034"/>
<polygon fill="#000000" stroke="#000000" points="1425.879,-43.3217 1431.9078,-34.6094 1421.7618,-37.6605 1425.879,-43.3217"/>
</g>
<!-- Check Meal Availability&#45;&gt;Version 0.0.1 -->
<g id="edge9" class="edge">
<title>Check Meal Availability&#45;&gt;Version 0.0.1</title>
<path fill="none" stroke="#000000" d="M1530.2829,-72.3868C1517.067,-62.8713 1500.5972,-51.0131 1486.4125,-40.8001"/>
<polygon fill="#000000" stroke="#000000" points="1488.0857,-37.692 1477.9253,-34.6893 1483.9955,-43.3728 1488.0857,-37.692"/>
</g>
<!-- Pay Meal&#45;&gt;Version 0.0.1 -->
<g id="edge10" class="edge">
<title>Pay Meal&#45;&gt;Version 0.0.1</title>
<path fill="none" stroke="#000000" d="M1682.5765,-78.2222C1676.0193,-76.0722 1669.189,-73.9079 1662.7457,-72 1611.9097,-56.9472 1553.4186,-41.9665 1511.436,-31.6162"/>
<polygon fill="#000000" stroke="#000000" points="1512.2158,-28.2038 1501.6697,-29.2186 1510.5468,-35.0019 1512.2158,-28.2038"/>
</g>
<!-- Save Unserved Meal -->
<g id="node16" class="node">
<title>Save Unserved Meal</title>
<ellipse fill="none" stroke="#000000" cx="1864.7457" cy="-90" rx="85.2851" ry="18"/>
<text text-anchor="middle" x="1864.7457" y="-86.3" font-family="Times,serif" font-size="14.00" fill="#000000">Save Unserved Meal</text>
</g>
<!-- Manage Unserved Meals&#45;&gt;Save Unserved Meal -->
<g id="edge27" class="edge">
<title>Manage Unserved Meals&#45;&gt;Save Unserved Meal</title>
<path fill="none" stroke="#000000" d="M2365.5875,-154.3534C2265.5099,-145.438 2100.2266,-129.181 1958.7457,-108 1951.4331,-106.9052 1943.8224,-105.6472 1936.2383,-104.3157"/>
<polygon fill="#000000" stroke="#000000" points="1936.7723,-100.8557 1926.3107,-102.5305 1935.5334,-107.7452 1936.7723,-100.8557"/>
</g>
<!-- Show Unserved Meal Identification Number -->
<g id="node17" class="node">
<title>Show Unserved Meal Identification Number</title>
<ellipse fill="none" stroke="#000000" cx="2136.7457" cy="-90" rx="168.97" ry="18"/>
<text text-anchor="middle" x="2136.7457" y="-86.3" font-family="Times,serif" font-size="14.00" fill="#000000">Show Unserved Meal Identification Number</text>
</g>
<!-- Manage Unserved Meals&#45;&gt;Show Unserved Meal Identification Number -->
<g id="edge28" class="edge">
<title>Manage Unserved Meals&#45;&gt;Show Unserved Meal Identification Number</title>
<path fill="none" stroke="#000000" d="M2393.9058,-147.861C2343.9568,-136.6225 2273.6762,-120.8094 2219.2074,-108.5539"/>
<polygon fill="#000000" stroke="#000000" points="2219.7538,-105.0894 2209.2293,-106.3088 2218.2171,-111.9187 2219.7538,-105.0894"/>
</g>
<!-- Show Unserved Meal Designation -->
<g id="node18" class="node">
<title>Show Unserved Meal Designation</title>
<ellipse fill="none" stroke="#000000" cx="2456.7457" cy="-90" rx="132.6765" ry="18"/>
<text text-anchor="middle" x="2456.7457" y="-86.3" font-family="Times,serif" font-size="14.00" fill="#000000">Show Unserved Meal Designation</text>
</g>
<!-- Manage Unserved Meals&#45;&gt;Show Unserved Meal Designation -->
<g id="edge29" class="edge">
<title>Manage Unserved Meals&#45;&gt;Show Unserved Meal Designation</title>
<path fill="none" stroke="#000000" d="M2456.7457,-143.8314C2456.7457,-136.131 2456.7457,-126.9743 2456.7457,-118.4166"/>
<polygon fill="#000000" stroke="#000000" points="2460.2458,-118.4132 2456.7457,-108.4133 2453.2458,-118.4133 2460.2458,-118.4132"/>
</g>
<!-- Show Unserved Meal Production Date -->
<g id="node19" class="node">
<title>Show Unserved Meal Production Date</title>
<ellipse fill="none" stroke="#000000" cx="2754.7457" cy="-90" rx="147.5738" ry="18"/>
<text text-anchor="middle" x="2754.7457" y="-86.3" font-family="Times,serif" font-size="14.00" fill="#000000">Show Unserved Meal Production Date</text>
</g>
<!-- Manage Unserved Meals&#45;&gt;Show Unserved Meal Production Date -->
<g id="edge30" class="edge">
<title>Manage Unserved Meals&#45;&gt;Show Unserved Meal Production Date</title>
<path fill="none" stroke="#000000" d="M2516.6919,-147.5163C2563.2192,-136.2748 2628.0456,-120.6121 2678.3024,-108.4695"/>
<polygon fill="#000000" stroke="#000000" points="2679.2515,-111.841 2688.1498,-106.0903 2677.6075,-105.0368 2679.2515,-111.841"/>
</g>
<!-- Show Unserved Meal Expiration Date -->
<g id="node20" class="node">
<title>Show Unserved Meal Expiration Date</title>
<ellipse fill="none" stroke="#000000" cx="3066.7457" cy="-90" rx="146.4744" ry="18"/>
<text text-anchor="middle" x="3066.7457" y="-86.3" font-family="Times,serif" font-size="14.00" fill="#000000">Show Unserved Meal Expiration Date</text>
</g>
<!-- Manage Unserved Meals&#45;&gt;Show Unserved Meal Expiration Date -->
<g id="edge31" class="edge">
<title>Manage Unserved Meals&#45;&gt;Show Unserved Meal Expiration Date</title>
<path fill="none" stroke="#000000" d="M2540.6036,-152.102C2647.0912,-139.533 2831.3512,-117.7843 2951.127,-103.6468"/>
<polygon fill="#000000" stroke="#000000" points="2951.5517,-107.121 2961.0725,-102.4729 2950.7312,-100.1693 2951.5517,-107.121"/>
</g>
<!-- Show Unserved Meal State -->
<g id="node21" class="node">
<title>Show Unserved Meal State</title>
<ellipse fill="none" stroke="#000000" cx="3338.7457" cy="-90" rx="107.781" ry="18"/>
<text text-anchor="middle" x="3338.7457" y="-86.3" font-family="Times,serif" font-size="14.00" fill="#000000">Show Unserved Meal State</text>
</g>
<!-- Manage Unserved Meals&#45;&gt;Show Unserved Meal State -->
<g id="edge32" class="edge">
<title>Manage Unserved Meals&#45;&gt;Show Unserved Meal State</title>
<path fill="none" stroke="#000000" d="M2554.1905,-157.6904C2699.7832,-150.6705 2982.5858,-134.792 3221.7457,-108 3231.5491,-106.9018 3241.7895,-105.5826 3251.9583,-104.1639"/>
<polygon fill="#000000" stroke="#000000" points="3252.6804,-107.5963 3262.0845,-102.7165 3251.6899,-100.6667 3252.6804,-107.5963"/>
</g>
<!-- Save Unserved Meal&#45;&gt;Version 0.0.1 -->
<g id="edge21" class="edge">
<title>Save Unserved Meal&#45;&gt;Version 0.0.1</title>
<path fill="none" stroke="#000000" d="M1801.8269,-77.772C1791.4497,-75.8069 1780.8008,-73.8217 1770.7457,-72 1682.633,-56.0367 1580.4571,-38.8091 1516.6991,-28.2118"/>
<polygon fill="#000000" stroke="#000000" points="1517.2424,-24.7542 1506.8042,-26.5691 1516.096,-31.6597 1517.2424,-24.7542"/>
</g>
<!-- Show Unserved Meal Identification Number&#45;&gt;Version 0.0.1 -->
<g id="edge22" class="edge">
<title>Show Unserved Meal Identification Number&#45;&gt;Version 0.0.1</title>
<path fill="none" stroke="#000000" d="M2016.3877,-77.2936C1871.9922,-62.0495 1635.0957,-37.0399 1520.6776,-24.9606"/>
<polygon fill="#000000" stroke="#000000" points="1520.9706,-21.4721 1510.6584,-23.9028 1520.2357,-28.4334 1520.9706,-21.4721"/>
</g>
<!-- Show Unserved Meal Designation&#45;&gt;Version 0.0.1 -->
<g id="edge23" class="edge">
<title>Show Unserved Meal Designation&#45;&gt;Version 0.0.1</title>
<path fill="none" stroke="#000000" d="M2362.8882,-77.25C2346.846,-75.3151 2330.3315,-73.4757 2314.7457,-72 2021.1328,-44.2008 1669.7219,-27.1932 1523.6573,-20.8423"/>
<polygon fill="#000000" stroke="#000000" points="1523.6409,-17.3384 1513.4991,-20.4034 1523.3387,-24.3319 1523.6409,-17.3384"/>
</g>
<!-- Show Unserved Meal Production Date&#45;&gt;Version 0.0.1 -->
<g id="edge24" class="edge">
<title>Show Unserved Meal Production Date&#45;&gt;Version 0.0.1</title>
<path fill="none" stroke="#000000" d="M2651.6293,-77.1041C2634.0062,-75.1861 2615.865,-73.3901 2598.7457,-72 2191.951,-38.9683 1702.0161,-24.1902 1523.8003,-19.63"/>
<polygon fill="#000000" stroke="#000000" points="1523.8622,-16.1306 1513.7767,-19.3759 1523.6848,-23.1283 1523.8622,-16.1306"/>
</g>
<!-- Show Unserved Meal Expiration Date&#45;&gt;Version 0.0.1 -->
<g id="edge25" class="edge">
<title>Show Unserved Meal Expiration Date&#45;&gt;Version 0.0.1</title>
<path fill="none" stroke="#000000" d="M2965.137,-77.0435C2947.3644,-75.1081 2929.0332,-73.3221 2911.7457,-72 2379.0507,-31.2611 1734.3536,-20.9917 1524.4285,-18.6417"/>
<polygon fill="#000000" stroke="#000000" points="1524.2089,-15.1392 1514.1711,-18.5294 1524.1321,-22.1388 1524.2089,-15.1392"/>
</g>
<!-- Show Unserved Meal State&#45;&gt;Version 0.0.1 -->
<g id="edge26" class="edge">
<title>Show Unserved Meal State&#45;&gt;Version 0.0.1</title>
<path fill="none" stroke="#000000" d="M3263.3867,-77.0227C3249.572,-75.0381 3235.2528,-73.2407 3221.7457,-72 2883.4328,-40.9236 1808.7608,-23.2114 1524.356,-18.9901"/>
<polygon fill="#000000" stroke="#000000" points="1524.2276,-15.488 1514.177,-18.8398 1524.1242,-22.4872 1524.2276,-15.488"/>
</g>
</g>
</svg>
